HIERARCHY
ROOT hips
{
  OFFSET 0 10.680822821525009 1.3929502295107734
  CHANNELS 6 Xposition Yposition Zposition Yrotation Xrotation Zrotation
  JOINT spine
  {
    OFFSET -7.042017322922631e-31 0.6058489940359625 0
    CHANNELS 3 Yrotation Xrotation Zrotation
    JOINT chest
    {
      OFFSET 0 1.2699794144455032 0
      CHANNELS 3 Yrotation Xrotation Zrotation
      JOINT upperChest
      {
        OFFSET 0 1.217799211677689 0
        CHANNELS 3 Yrotation Xrotation Zrotation
        JOINT neck
        {
          OFFSET 0 1.5248826104153006 0
          CHANNELS 3 Yrotation Xrotation Zrotation
          JOINT head
          {
            OFFSET 0 0.8197772727844447 0
            CHANNELS 3 Yrotation Xrotation Zrotation
            JOINT leftEye
            {
              OFFSET 0.2793952361220866 0.6769952096623495 0.1830357412467788
              CHANNELS 3 Yrotation Xrotation Zrotation
              End Site
              {
                OFFSET 0.2793952361220866 0.6769952096623495 0.1830357412467788
              }
            }
            JOINT rightEye
            {
              OFFSET -0.27939522230689573 0.676995205357064 0.18303631459760622
              CHANNELS 3 Yrotation Xrotation Zrotation
              End Site
              {
                OFFSET -0.27939522230689573 0.676995205357064 0.18303631459760622
              }
            }
          }
        }
        JOINT leftShoulder
        {
          OFFSET 0.41486978509200423 1.1670505408695453 0
          CHANNELS 3 Yrotation Xrotation Zrotation
          JOINT leftUpperArm
          {
            OFFSET 0.9737926108153417 0 0
            CHANNELS 3 Yrotation Xrotation Zrotation
            JOINT leftLowerArm
            {
              OFFSET 2.5269332222665284 0 0
              CHANNELS 3 Yrotation Xrotation Zrotation
              JOINT leftHand
              {
                OFFSET 2.4263782738425914 0 0
                CHANNELS 3 Yrotation Xrotation Zrotation
                JOINT leftIndexProximal
                {
                  OFFSET 0.724320348022514 0.08170607082582437 0.20360061616140124
                  CHANNELS 3 Yrotation Xrotation Zrotation
                  JOINT leftIndexIntermediate
                  {
                    OFFSET 0.36548960630744587 -0.010566596513783999 -0.01414783573280308
                    CHANNELS 3 Yrotation Xrotation Zrotation
                    JOINT leftIndexDistal
                    {
                      OFFSET 0.22502819650693362 -0.007863819831430696 -0.007567681939621526
                      CHANNELS 3 Yrotation Xrotation Zrotation
                      End Site
                      {
                        OFFSET 0.22502819650693362 -0.007863819831430696 -0.007567681939621526
                      }
                    }
                  }
                }
                JOINT leftLittleProximal
                {
                  OFFSET 0.6720322998298205 0.08170601055037707 -0.3230036039466837
                  CHANNELS 3 Yrotation Xrotation Zrotation
                  JOINT leftLittleIntermediate
                  {
                    OFFSET 0.34583592281688713 5.476543019078406e-8 1.3869203337180114e-7
                    CHANNELS 3 Yrotation Xrotation Zrotation
                    JOINT leftLittleDistal
                    {
                      OFFSET 0.19925728062053938 0.003098047439490381 0.0038303983709246925
                      CHANNELS 3 Yrotation Xrotation Zrotation
                      End Site
                      {
                        OFFSET 0.19925728062053938 0.003098047439490381 0.0038303983709246925
                      }
                    }
                  }
                }
                JOINT leftMiddleProximal
                {
                  OFFSET 0.7300436596551069 0.0817073395107144 0.022661722987926763
                  CHANNELS 3 Yrotation Xrotation Zrotation
                  JOINT leftMiddleIntermediate
                  {
                    OFFSET 0.40758254347686607 -0.0000012383587111308714 2.408460318820138e-7
                    CHANNELS 3 Yrotation Xrotation Zrotation
                    JOINT leftMiddleDistal
                    {
                      OFFSET 0.2514490105498507 0.0000013869132886590307 9.738618134136345e-8
                      CHANNELS 3 Yrotation Xrotation Zrotation
                      End Site
                      {
                        OFFSET 0.2514490105498507 0.0000013869132886590307 9.738618134136345e-8
                      }
                    }
                  }
                }
                JOINT leftRingProximal
                {
                  OFFSET 0.7217261161191838 0.08170601902187746 -0.15043395722184966
                  CHANNELS 3 Yrotation Xrotation Zrotation
                  JOINT leftRingIntermediate
                  {
                    OFFSET 0.37808807487521556 0.0000013754022405443322 2.2046919317952884e-7
                    CHANNELS 3 Yrotation Xrotation Zrotation
                    JOINT leftRingDistal
                    {
                      OFFSET 0.21812105442344254 -0.002713483731960231 -0.004991354517454624
                      CHANNELS 3 Yrotation Xrotation Zrotation
                      End Site
                      {
                        OFFSET 0.21812105442344254 -0.002713483731960231 -0.004991354517454624
                      }
                    }
                  }
                }
                JOINT leftThumbProximal
                {
                  OFFSET 0.10793587079521427 -0.1652791240518252 -0.07775251827190094
                  CHANNELS 3 Yrotation Xrotation Zrotation
                  JOINT leftThumbIntermediate
                  {
                    OFFSET 0.40355819082296684 -0.017484006740276614 0.3177776014416309
                    CHANNELS 3 Yrotation Xrotation Zrotation
                    JOINT leftThumbDistal
                    {
                      OFFSET 0.2318764658022603 -0.018510186824293617 0.21396001800186287
                      CHANNELS 3 Yrotation Xrotation Zrotation
                      End Site
                      {
                        OFFSET 0.2318764658022603 -0.018510186824293617 0.21396001800186287
                      }
                    }
                  }
                }
              }
            }
          }
        }
        JOINT rightShoulder
        {
          OFFSET -0.4148697850920044 1.1670505408695453 0
          CHANNELS 3 Yrotation Xrotation Zrotation
          JOINT rightUpperArm
          {
            OFFSET -0.9737926108153414 0 0
            CHANNELS 3 Yrotation Xrotation Zrotation
            JOINT rightLowerArm
            {
              OFFSET -2.5269332222665293 0 0
              CHANNELS 3 Yrotation Xrotation Zrotation
              JOINT rightHand
              {
                OFFSET -2.42637827384259 0 0
                CHANNELS 3 Yrotation Xrotation Zrotation
                JOINT rightIndexProximal
                {
                  OFFSET -0.724320348022514 0.08170607082582437 0.20360061616140124
                  CHANNELS 3 Yrotation Xrotation Zrotation
                  JOINT rightIndexIntermediate
                  {
                    OFFSET -0.36548960630744587 -0.010566596513783999 -0.01414783573280308
                    CHANNELS 3 Yrotation Xrotation Zrotation
                    JOINT rightIndexDistal
                    {
                      OFFSET -0.22502819650693362 -0.007863819831430696 -0.007567681939621526
                      CHANNELS 3 Yrotation Xrotation Zrotation
                      End Site
                      {
                        OFFSET -0.22502819650693362 -0.007863819831430696 -0.007567681939621526
                      }
                    }
                  }
                }
                JOINT rightLittleProximal
                {
                  OFFSET -0.6720322998298205 0.08170601055037707 -0.3230036039466837
                  CHANNELS 3 Yrotation Xrotation Zrotation
                  JOINT rightLittleIntermediate
                  {
                    OFFSET -0.34583592281688713 5.476543019078406e-8 1.3869203337180114e-7
                    CHANNELS 3 Yrotation Xrotation Zrotation
                    JOINT rightLittleDistal
                    {
                      OFFSET -0.19925728062053938 0.003098047439490381 0.0038303983709246925
                      CHANNELS 3 Yrotation Xrotation Zrotation
                      End Site
                      {
                        OFFSET -0.19925728062053938 0.003098047439490381 0.0038303983709246925
                      }
                    }
                  }
                }
                JOINT rightMiddleProximal
                {
                  OFFSET -0.7300436596551069 0.0817073395107144 0.022661722987926763
                  CHANNELS 3 Yrotation Xrotation Zrotation
                  JOINT rightMiddleIntermediate
                  {
                    OFFSET -0.40758254347686607 -0.0000012383587111308714 2.408460318820138e-7
                    CHANNELS 3 Yrotation Xrotation Zrotation
                    JOINT rightMiddleDistal
                    {
                      OFFSET -0.2514490105498507 0.0000013869132886590307 9.738618134136345e-8
                      CHANNELS 3 Yrotation Xrotation Zrotation
                      End Site
                      {
                        OFFSET -0.2514490105498507 0.0000013869132886590307 9.738618134136345e-8
                      }
                    }
                  }
                }
                JOINT rightRingProximal
                {
                  OFFSET -0.7217261161191838 0.08170601902187746 -0.15043395722184966
                  CHANNELS 3 Yrotation Xrotation Zrotation
                  JOINT rightRingIntermediate
                  {
                    OFFSET -0.37808807487521556 0.0000013754022405443322 2.2046919317952884e-7
                    CHANNELS 3 Yrotation Xrotation Zrotation
                    JOINT rightRingDistal
                    {
                      OFFSET -0.21812105442344254 -0.002713483731960231 -0.004991354517454624
                      CHANNELS 3 Yrotation Xrotation Zrotation
                      End Site
                      {
                        OFFSET -0.21812105442344254 -0.002713483731960231 -0.004991354517454624
                      }
                    }
                  }
                }
                JOINT rightThumbProximal
                {
                  OFFSET -0.10793587079521427 -0.1652791240518252 -0.07775251827190094
                  CHANNELS 3 Yrotation Xrotation Zrotation
                  JOINT rightThumbIntermediate
                  {
                    OFFSET -0.40355819082296684 -0.017484006740276614 0.3177776014416309
                    CHANNELS 3 Yrotation Xrotation Zrotation
                    JOINT rightThumbDistal
                    {
                      OFFSET -0.2318764658022603 -0.018510186824293617 0.21396001800186287
                      CHANNELS 3 Yrotation Xrotation Zrotation
                      End Site
                      {
                        OFFSET -0.2318764658022603 -0.018510186824293617 0.21396001800186287
                      }
                    }
                  }
                }
              }
            }
          }
        }
      }
    }
  }
  JOINT leftUpperLeg
  {
    OFFSET 0.8486251390888677 -0.4421577294694363 0
    CHANNELS 3 Yrotation Xrotation Zrotation
    JOINT leftLowerLeg
    {
      OFFSET 0 -4.10147812638609 0
      CHANNELS 3 Yrotation Xrotation Zrotation
      JOINT leftFoot
      {
        OFFSET -0.0002543926476658853 -4.77292286812444 0.007402811231737388
        CHANNELS 3 Yrotation Xrotation Zrotation
        JOINT leftToes
        {
          OFFSET 0 -0.7027875951174846 1.2062924140498823
          CHANNELS 3 Yrotation Xrotation Zrotation
          End Site
          {
            OFFSET 0 -0.7027875951174846 1.2062924140498823
          }
        }
      }
    }
  }
  JOINT rightUpperLeg
  {
    OFFSET -0.8486251390888677 -0.4421577294694363 0
    CHANNELS 3 Yrotation Xrotation Zrotation
    JOINT rightLowerLeg
    {
      OFFSET 0 -4.10147812638609 0
      CHANNELS 3 Yrotation Xrotation Zrotation
      JOINT rightFoot
      {
        OFFSET 0.0002543926476658853 -4.77292286812444 0.007402811231737388
        CHANNELS 3 Yrotation Xrotation Zrotation
        JOINT rightToes
        {
          OFFSET 0 -0.7027875951174846 1.2062924140498823
          CHANNELS 3 Yrotation Xrotation Zrotation
          End Site
          {
            OFFSET 0 -0.7027875951174846 1.2062924140498823
          }
        }
      }
    }
  }
}
MOTION
Frames: 4
Frame Time: 0.03333333333333333
0.4808896481990814 -0.11964652147618082 0.10439959913492203 14.457436403627172 14.582150538397311 -6.058391601759445 -10.699886963547568 -12.798246320553337 5.524559807378123 -2.2113085344017382 10.859180469822604 6.860605815310952 0 0 0 -2.080187093983235 -0.09554194434730245 3.051488130667754 -6.734995713703669 0.33226212406775857 1.5546392810837402 0 0 0 0 0 0 -0.5932811095363579 0.902726247676406 1.3031557111816878 -32.27739024409388 -22.677161406470365 -48.92006336308485 -105.03855995190864 1.2219156013687429 0.3369487727130588 -49.54879332953957 31.72634156351277 2.554598939202521 0.561172341811236 0.025582050834494593 -5.2227104277721486 0.5611848276528563 0.02560050868885598 -5.222669731018022 0.28086947622239516 0.006390825925722229 -2.6113734206702395 4.606374213852688 0.3786837591236814 -4.750424693889279 -3.4995727822704623 0.013850420651199758 -5.680254061843036 0.28088748529428 0.006404187399993025 -2.6113665975740274 0.5594573456109023 0.025419330232541067 -5.2067105959886995 0.5628876581779387 0.025757267882652927 -5.238696116952664 0.28088300303639385 0.006396428398428973 -2.6113653182434793 0.5611723951695337 0.02558204583191414 -5.2227104277721486 0.561184774294559 0.025600507021329162 -5.222669731018022 0.28086947622239516 0.006390825508840563 -2.6113734206702395 -3.5878169475772874 -1.5120969101395627 10.840563135860295 17.419443616705074 4.4733589257442326 2.6110493757659303 6.3022174759592735 -0.16791147647165117 2.8947369157894456 -3.373427760312406 -0.16914702568477769 -2.938132437896623 4.645195562892492 -2.899749963862756 30.276842583190533 114.23341935595 1.3174100548862144 -0.25171854875802296 -12.299566058208557 17.948886859835504 18.077820768526358 -1.1015608361493088 0.09812129159790804 10.179836297991786 -1.1015763079591674 0.09811366765487244 10.179833776987843 -0.5529956938310499 0.0245770440972252 5.090149230154522 -1.1015688388096003 0.0981144213780246 10.179839422574986 -1.101577374980531 0.0981214316703523 10.179825373641076 -0.5529888106009812 0.0245718647589651 5.090153482188058 -1.1015609428514463 0.09812132494849 10.179836297991786 -1.1015764146613038 0.09811367432498883 10.179833776987843 -0.5529956938310499 0.0245770440972252 5.090149230154522 -1.1015608361493088 0.09812127158755887 10.179837138326427 -1.1015764146613038 0.09811367432498883 10.179833776987843 -0.5529956938310499 0.0245770440972252 5.090149230154522 1.0958201831504903 -1.8120062997576745 -5.901606282515729 -19.71662864312274 5.271466624221939 -2.5806804484272727 -5.375298385007833 -0.7925581645858055 -2.52783896954309 7.771686373456399 -23.384430003976874 -4.419079771637758 10.484954314261737 21.69717273260292 5.461099829899239 2.769273036833168 -9.738572301720929 16.32710440234998 -0.004289230577618369 -5.40851025128827 -0.8375402845586275 -6.135470795241404 -19.351225862174996 8.020459186448893 6.646605912361912 20.53891170686759 0.8374238357497658 0.21953411925219454 -0.18235627350674 -5.472671159160118 -0.003211754843632291 -13.848456486995504 1.9763235862758253
0.49989601969718933 -0.15419718828526285 0.10915805399417877 14.821162944826343 14.691950777703012 -7.34940253221472 -11.765003266447398 -13.221471601018004 5.887255745017945 -2.218377421281747 11.757601230891131 8.399670856462686 0 0 0 -1.9871486332006287 -0.07073587159219034 2.7568411036618348 -6.6778960983699305 0.3254707764450896 1.6786998909627049 0 0 0 0 0 0 0.06117258233971735 0.7222195291730535 1.9029505417454207 -36.29581734825363 -21.68262215984167 -44.798820520837005 -105.7618805802137 1.22988441410079 0.33079266286022285 -48.13973487455958 30.014280120817734 5.236161953771416 0.5611716481533666 0.025573359684714005 -5.222683759800492 0.5611795985397057 0.025595346025823563 -5.222699374792352 0.2808743320017829 0.00639833688269504 -2.6113797596975936 4.606366129025063 0.37866457547809457 -4.750422992170407 -3.4995642604542554 0.013865344181415813 -5.680263407238513 0.2808801215848938 0.00639886798993728 -2.6113799729193596 0.5594549978451306 0.025413805716196655 -5.206680952417216 0.5628841898895937 0.025753280826023177 -5.238715246620762 0.28088201587245415 0.006392867812121331 -2.6113721413397055 0.5611716481533666 0.02557335301460673 -5.222683759800492 0.5611795985397057 0.025595346025823563 -5.222699374792352 0.2808743320017829 0.006398336465813374 -2.6113797596975936 -3.971422215842618 -1.494877517862391 9.89343905829833 17.419443616705074 4.4733589257442326 2.6110493757659303 6.3022174759592735 -0.16791147647165117 2.8947369157894456 -3.3343084731126016 -0.14194288202767877 -2.648599885357966 2.28564344549616 -6.519740099913981 30.200243693198143 112.56655207634918 1.3011245531308444 -0.2682678848531269 -12.352750734799208 17.60373163910232 18.57389562875125 -1.1015608361493088 0.09812129159790804 10.179836297991786 -1.1015763079591674 0.09811366765487244 10.179833776987843 -0.5529956938310499 0.0245770440972252 5.090149230154522 -1.1015688388096003 0.0981144213780246 10.179839422574986 -1.101577374980531 0.0981214316703523 10.179825373641076 -0.5529888106009812 0.0245718647589651 5.090153482188058 -1.1015609428514463 0.09812132494849 10.179836297991786 -1.1015764146613038 0.09811367432498883 10.179833776987843 -0.5529956938310499 0.0245770440972252 5.090149230154522 -1.1015608361493088 0.09812127158755887 10.179837138326427 -1.1015764146613038 0.09811367432498883 10.179833776987843 -0.5529956938310499 0.0245770440972252 5.090149230154522 -0.08516761916285903 -1.8171073804798206 -6.030617195267403 -20.454188621818172 5.304433671972818 -2.70283068683727 -5.7409727034587545 -0.7619408384101432 -2.558029084293954 8.293196802852483 -26.676739717665427 -3.4254156826239117 10.877349090473638 26.979892073660004 7.227568460118936 1.9153609396939728 -7.9880241078674725 12.807590880631874 0.02418669389903079 -8.806860915726153 -2.420832203462077 -8.32388340563183 -19.37232396427248 8.878929391191622 7.55768046243121 21.12730373031142 2.6962145341390955 0.20368498664689907 -0.4151301767946966 -4.9283536729312205 0.005544758472311389 -14.082187311341636 0.9573391143435902
0.5216185450553894 -0.2279343327554777 0.09593219310045242 15.467521005284045 14.295318772868153 -9.163637007112248 -12.524566432012124 -12.71287953030017 5.693370665534338 -2.0645079663443604 12.539056838565172 10.743011512204724 0 0 0 -1.934292047589873 -0.16967312597334375 2.4346270140781057 -6.866052831857824 0.1666613330815953 1.9007951941044063 0 0 0 0 0 0 1.4459808187249923 0.3153071359627335 3.3760582246020623 -43.28739709609795 -17.671344248988987 -36.08787932342839 -107.23274033829053 1.2459397462319328 0.3180329894538573 -45.90823489137927 27.444607981395826 10.1352655122057 0.5611734623354862 0.025590792010080347 -5.22267865842512 0.5611737824852718 0.025580795186799857 -5.222721480751556 0.2808856443669343 0.00640635685218192 -2.611373207448484 4.606374062607042 0.3786929907528663 -4.750406968442223 -3.499570225725616 0.013842728350525602 -5.680275214603535 0.2808861246088506 0.0064010699588960855 -2.6113702223438993 0.5594600135265498 0.0254338210405811 -5.206674575535481 0.5628838697399001 0.025739823884576143 -5.2387224733839615 0.28088897938024127 0.006404597611552185 -2.6113759217057932 0.5611734623354862 0.025590785339973072 -5.22267865842512 0.5611737824852718 0.02558079351927304 -5.222721480751556 0.2808856443669343 0.006406357269063586 -2.611373207448484 -2.6065816044765597 -1.5246486950237497 7.704524220217112 17.419443616705074 4.4733589257442326 2.6110493757659303 6.3022174759592735 -0.16791147647165117 2.8947369157894456 -3.3042732896534206 -0.09892683489422234 -2.0034010920200664 -2.3620436596041996 -14.499857455339262 31.299724381169426 108.58452930802403 1.2603333301276525 -0.30586275375307526 -13.150137941011366 17.209020490346738 18.55911729808343 -1.1015608361493088 0.09812129159790804 10.179836297991786 -1.1015763079591674 0.09811366765487244 10.179833776987843 -0.5529956938310499 0.0245770440972252 5.090149230154522 -1.1015688388096003 0.0981144213780246 10.179839422574986 -1.101577374980531 0.0981214316703523 10.179825373641076 -0.5529888106009812 0.0245718647589651 5.090153482188058 -1.1015609428514463 0.09812132494849 10.179836297991786 -1.1015764146613038 0.09811367432498883 10.179833776987843 -0.5529956938310499 0.0245770440972252 5.090149230154522 -1.1015608361493088 0.09812127158755887 10.179837138326427 -1.1015764146613038 0.09811367432498883 10.179833776987843 -0.5529956938310499 0.0245770440972252 5.090149230154522 -4.460440672363089 -1.8591378737005235 -6.507071670548506 -26.242532782182405 5.5082066840566375 -3.673884403583642 -8.609418452885523 -0.5286537906934664 -2.801493958745355 11.155592798078576 -33.76151845205806 -1.6378900316306544 3.354032559876738 39.03860161492362 5.633040600217029 0.015278168014281423 2.767022882021573 1.7973027923276297 0.000026777608503906275 -23.375835456817125 -0.000008688708528904745 -12.389875790893806 -18.67956786958191 10.46219046222699 7.784981601135396 22.349948629034866 4.858205282228265 0.345430544112711 -2.1986713953279624 -5.876160710208997 0.005056934270103918 -13.116342062740694 1.07573245157357
0.52460116147995 -0.3070187291177824 0.07695288956165314 15.554809419066718 12.960668461621417 -9.981097869201086 -11.375624415465582 -10.834756469329056 4.340235500959087 -1.709544321268994 11.753111845724588 12.36667805857915 0 0 0 -2.03676898708944 0.04758272176069188 2.351555251432627 -7.4108396374391186 -0.08010985412297919 1.3818541197025542 0 0 0 0 0 0 2.0385618327302932 0.07723239409850255 5.10973045697016 -46.63524727309876 -12.474382168967523 -30.23886908331172 -108.49334599929364 1.2594043065352138 0.3067503353782873 -44.81191999362958 28.34035068896925 12.004403356604586 0.6329377763492865 0.03256916517169223 -5.892823904280939 0.6325107177060724 0.032525269193000646 -5.888817123427106 0.3166792195119403 0.008133455491776036 -2.9444597643116404 4.673741255742591 0.43289267691116473 -5.418420529560039 -3.4282848168750655 0.021361081951207256 -6.346393433998659 0.3166838351551394 0.00813192803734665 -2.944452303654921 0.6312260891490291 0.03238970258942602 -5.876823735079517 0.6342168401041447 0.03270208707780585 -5.904838450124124 0.3166807936330318 0.008131315221295562 -2.9444495325538287 0.6329377763492865 0.03256915850158454 -5.892823904280939 0.6325107710636824 0.032525269193000646 -5.888817123427106 0.3166792195119403 0.0081334546580127 -2.9444597643116404 -0.6636910157837111 -1.543839655438341 6.9876205630017045 17.419443616705074 4.4733589257442326 2.6110493757659303 6.3022174759592735 -0.16791147647165117 2.8947369157894456 -3.267155570322609 -0.08391690808365446 -1.7921825672411993 -4.886535243603968 -20.018670991813163 32.611688508014076 103.74830309202709 1.207404058183082 -0.34756790403796733 -14.32980711419958 16.46177428907851 16.698124100099665 -1.1015608361493088 0.09812129159790804 10.179836297991786 -1.1015763079591674 0.09811366765487244 10.179833776987843 -0.5529956938310499 0.0245770440972252 5.090149230154522 -1.1015688388096003 0.0981144213780246 10.179839422574986 -1.101577374980531 0.0981214316703523 10.179825373641076 -0.5529888106009812 0.0245718647589651 5.090153482188058 -1.1015609428514463 0.09812132494849 10.179836297991786 -1.1015764146613038 0.09811367432498883 10.179833776987843 -0.5529956938310499 0.0245770440972252 5.090149230154522 -1.1015608361493088 0.09812127158755887 10.179837138326427 -1.1015764146613038 0.09811367432498883 10.179833776987843 -0.5529956938310499 0.0245770440972252 5.090149230154522 -9.987523719837322 -1.9639550977872968 -7.102069263954874 -35.04223834745088 5.628723798671256 -5.176060870546672 -12.968333219271454 -0.19834184589918258 -3.192865624698928 14.062809503952426 -38.12859947349704 0.15381580665392655 -13.558205432038015 47.09978205605234 -3.6372869314238483 -0.7356225969703407 6.716270221754632 -9.442824969548054 -0.07120280142357367 -30.985391068265148 3.3042435787407203 -14.780579599298742 -17.229997070633402 11.364017338260778 7.129899512433408 23.93126184862688 5.2906331649812035 0.7676076428590466 -6.2180568773981815 -7.996358487047498 -0.006085001058492903 -10.04025478198591 1.8814346886713238
